<svg width="32" height="32" viewBox="0 0 32 32" fill="none" xmlns="http://www.w3.org/2000/svg">
<path d="M16 2.66675C8.63621 2.66675 2.66667 8.63629 2.66667 16.0001C2.66667 23.3639 8.63621 29.3334 16 29.3334C23.3638 29.3334 29.3333 23.3639 29.3333 16.0001C29.3333 8.63629 23.3638 2.66675 16 2.66675Z" fill="#14B8A6"/>
<path d="M12 10.6667C12 9.93328 11.4 9.33328 10.6667 9.33328C9.93333 9.33328 9.33333 9.93328 9.33333 10.6667C9.33333 11.4 9.93333 12 10.6667 12C11.4 12 12 11.4 12 10.6667Z" fill="white"/>
<path d="M22.6667 10.6667C22.6667 9.93328 22.0667 9.33328 21.3333 9.33328C20.6 9.33328 20 9.93328 20 10.6667C20 11.4 20.6 12 21.3333 12C22.0667 12 22.6667 11.4 22.6667 10.6667Z" fill="white"/>
<path d="M21.3333 17.3333C21.3333 20.2789 18.9455 22.6667 16 22.6667C13.0545 22.6667 10.6667 20.2789 10.6667 17.3333H9.33333C9.33333 21.0152 12.3181 24 16 24C19.6819 24 22.6667 21.0152 22.6667 17.3333H21.3333Z" fill="white"/>
</svg>